<svg width="100" height="100" viewBox="0 0 100 100" fill="none" xmlns="http://www.w3.org/2000/svg">
<rect width="100" height="100" rx="23" fill="#F1F1F1"/>
<path d="M11.7377 65.1792C10.9845 65.1792 10.3399 64.9149 9.80393 64.3862C9.26798 63.8575 9 63.2165 9 62.4633V36.7599C9 36.0067 9.26797 35.3621 9.80392 34.8262C10.3399 34.2902 10.9845 34.0223 11.7377 34.0223C12.491 34.0223 13.1355 34.2902 13.6715 34.8262C14.2074 35.3621 14.4754 36.0067 14.4754 36.76V62.4633C14.4754 63.2165 14.2074 63.8575 13.6715 64.3862C13.1355 64.9149 12.491 65.1793 11.7377 65.1793L11.7377 65.1792ZM31.8579 65.1792C31.0468 65.1792 30.3225 64.8316 29.6852 64.1363L19.6687 51.2952C19.2921 50.7593 19.1038 50.1943 19.1038 49.6004C19.1038 49.0066 19.2921 48.4489 19.6687 47.9274L29.6852 35.0641C30.2646 34.3688 30.9888 34.0211 31.8579 34.0211C32.4518 34.0211 33.0095 34.2167 33.531 34.6078C34.2263 35.1582 34.5739 35.8752 34.5739 36.7588C34.5739 37.3527 34.3856 37.9104 34.009 38.4319L25.2962 49.5998L34.009 60.7678C34.3856 61.2892 34.5739 61.8469 34.5739 62.4408C34.5739 62.5567 34.5485 62.8247 34.4979 63.2447C34.4472 63.6648 34.1249 64.1211 33.531 64.6136C33.0095 64.9902 32.4518 65.1785 31.8579 65.1785L31.8579 65.1792ZM52.4335 65.1792C54.5194 65.1792 56.4423 64.7411 58.2022 63.8647C59.9622 62.9884 61.465 61.7245 62.7107 60.0732C64.8834 57.0458 65.9698 53.5549 65.9698 49.6005C65.9698 45.646 64.8834 42.1551 62.7107 39.1277C61.4649 37.4764 59.9621 36.2126 58.2022 35.3362C56.4422 34.4599 54.5193 34.0217 52.4335 34.0217H41.0052C40.252 34.0217 39.6074 34.2897 39.0715 34.8257C38.5355 35.3616 38.2675 36.0062 38.2675 36.7594V44.5597C38.2675 45.3129 38.5355 45.9575 39.0715 46.4934C39.6074 47.0294 40.252 47.2973 41.0052 47.2973C41.7585 47.2974 42.4031 47.0294 42.939 46.4934C43.475 45.9575 43.743 45.3129 43.743 44.5596V39.4754H52.434C55.0414 39.4754 57.0765 40.5545 58.5395 42.7128C59.8432 44.6393 60.495 46.9352 60.495 49.6005C60.495 52.3382 59.778 54.7355 58.344 56.7923C56.881 58.7478 54.911 59.7256 52.434 59.7256H41.0058C40.2525 59.7256 39.6079 59.9899 39.072 60.5186C38.536 61.0473 38.2681 61.6955 38.2681 62.4632C38.2681 63.2164 38.536 63.8574 39.072 64.3861C39.6079 64.9148 40.2525 65.1792 41.0058 65.1792H52.4341L52.4335 65.1792ZM81.1797 65.1792C80.1078 65.1792 79.0359 65.0706 77.964 64.8533C75.1539 64.2449 72.9159 63.0499 71.2501 61.2682C70.7721 60.7178 70.5331 60.1094 70.5331 59.4431C70.5331 59.3997 70.544 59.186 70.5657 58.8022C70.5874 58.4183 70.8771 57.9729 71.4348 57.4659C71.9925 56.9589 72.6045 56.7054 73.2708 56.7054C73.3143 56.7054 73.5279 56.7126 73.9118 56.7271C74.2956 56.7416 74.7555 57.0313 75.2914 57.5962C76.2185 58.5523 77.5004 59.1896 79.1372 59.5083C79.818 59.6531 80.4988 59.7256 81.1796 59.7256C82.0922 59.7256 82.983 59.5952 83.8521 59.3345C85.2427 58.8275 86.0684 58.1467 86.3291 57.2921C86.4739 56.814 86.5464 56.4012 86.5464 56.0536C86.5464 55.3293 86.1806 54.7173 85.4491 54.2176C84.7176 53.7178 83.1134 53.1638 80.6364 52.5555C79.4486 52.2368 78.2681 51.8819 77.0948 51.4908C72.5754 49.9699 70.3158 47.196 70.3158 43.1691C70.3158 42.8359 70.3302 42.4883 70.3592 42.1262C70.6779 39.6202 71.8186 37.6394 73.7813 36.1836C75.7441 34.7279 78.2753 34 81.3752 34C82.1574 34.0435 82.802 34.3259 83.3089 34.8474C83.8159 35.3688 84.0694 36.0134 84.0694 36.7812C84.026 37.5634 83.7435 38.2079 83.222 38.7149C82.7006 39.2219 82.0705 39.4754 81.3317 39.4754C79.2893 39.4754 77.7539 39.9317 76.7255 40.8442C76.0736 41.4092 75.7477 42.2203 75.7477 43.2777C75.7477 44.1324 76.1352 44.8421 76.9102 45.4071C77.6851 45.972 79.398 46.5876 82.0487 47.254C83.1786 47.5292 84.3084 47.8623 85.4382 48.2534C89.8127 49.7164 92 52.3382 92 56.1189C92 56.423 91.9855 56.7345 91.9565 57.0531C91.493 60.6889 89.3565 63.1804 85.5469 64.5275C84.1563 64.962 82.7005 65.1793 81.1796 65.1793L81.1797 65.1792ZM88.958 42.4306C88.2047 42.4306 87.5638 42.1626 87.0351 41.6267C86.5064 41.0907 86.242 40.4461 86.242 39.6929C86.242 38.9396 86.5064 38.295 87.0351 37.7591C87.5638 37.2231 88.2047 36.9552 88.958 36.9552C89.7112 36.9552 90.3558 37.2231 90.8917 37.7591C91.4277 38.295 91.6957 38.9396 91.6957 39.6929C91.6956 40.4461 91.4277 41.0907 90.8917 41.6267C90.3558 42.1626 89.7112 42.4306 88.958 42.4306L88.958 42.4306Z" fill="#222831"/>
</svg>
