<svg width="200" height="23" viewBox="0 0 200 23" fill="none" xmlns="http://www.w3.org/2000/svg">
<g clip-path="url(#clip0)">
<path d="M3.55349 22.847H0.545019V0.697222L0 0.0213962H3.55353V22.8471L3.55349 22.847ZM4.77435 0.0649H9.04726L11.8378 12.5128V0.0860991H14.8245V22.8897H11.0966L8.32788 10.5071V22.9118H5.31941V0.740008L4.77435 0.0649ZM15.7401 0.086914H19.2283L21.2557 16.4811L23.2614 0.086914H26.2699L23.4793 22.9126H19.0102L16.3069 0.762838H16.2851L15.7401 0.086914ZM30.1286 19.4678H33.6603V3.53184H29.2566L30.1286 4.20766V19.4685V19.4678ZM36.6467 2.24514V20.7543C36.6467 21.9752 35.7093 22.9127 34.4884 22.9127H29.2999C28.079 22.9127 27.1416 21.9753 27.1416 20.7543V2.24514C27.1416 1.08971 28.079 0.0868331 29.2999 0.0868331H34.4884C35.7092 0.0868331 36.6467 1.08963 36.6467 2.24514ZM40.9854 22.847H37.9769V0.697222L37.4319 0.0213962H40.9854V22.8471L40.9854 22.847ZM44.4299 0.0649H50.2725V3.50942H44.3645L45.2584 4.16344C45.1712 8.00039 45.1712 15.6305 45.2584 19.4455H50.2725V22.89H44.4299C43.2091 22.89 42.2716 21.9526 42.2716 20.7317V2.22251C42.2716 1.00169 43.209 0.0641987 44.4299 0.0641987V0.0649ZM51.3189 0.762838L50.7739 0.087012H59.3416V3.53153H53.4335L54.3274 4.20736V9.76656H57.8592V13.2328H53.4336L54.3275 13.8869V19.4678H59.3416V22.9124H51.3189V19.4678V13.2328V9.76651V0.762625L51.3189 0.762838ZM65.0316 13.1896H60.2791V9.74503H65.0316V13.1896ZM70.1112 16.0451H73.1851L71.659 3.53119L70.1112 16.0451ZM66.2524 22.9342L68.9775 0.76241L68.4325 0.108388H74.2532L77.0655 22.934H74.0352L73.621 19.4895L68.803 19.4677L69.6097 20.0999L69.2608 22.934H66.2524L66.2524 22.9342ZM81.1424 19.4678H84.6523V3.53184H80.2485L81.1424 4.20766V19.4685V19.4678ZM87.6609 2.24514V20.7543C87.6609 21.9752 86.7017 22.9127 85.4808 22.9127H78.134V19.4681V0.763245L77.589 0.0874202H85.4808C86.6798 0.0874202 87.6609 1.09022 87.6609 2.24573L87.6609 2.24514ZM88.4456 0.086914H93.4816L95.509 7.78257L97.5583 0.086914H102.049L102.027 22.9126H99.0407V6.16941L95.509 19.4245V19.4463V19.4245V19.4463V19.4245L91.9991 6.16941V22.9126H88.9906V0.740823L88.4456 0.086914ZM106.824 22.847H103.815V0.697222L103.27 0.0213962H106.824V22.8471L106.824 22.847ZM108.044 0.0649H112.317L115.108 12.5128V0.0860991H118.095V22.8897H114.367L111.598 10.5071V22.9118H108.59V0.740008L108.044 0.0649ZM122.869 22.847H119.86V0.697222L119.315 0.0213962H122.869V22.8471L122.869 22.847ZM133.486 2.24514V6.9541H130.499V3.50958H126.095L126.967 4.18541V6.95408L133.486 14.9549V18.3994V20.7539C133.486 21.9094 132.548 22.9122 131.327 22.9122H126.139C124.918 22.9122 123.98 21.9094 123.98 20.7539V15.8923H126.967V19.4676H130.499V16.0231L123.98 8.02227V2.24504C123.98 1.02422 124.918 0.0867352 126.139 0.0867352H131.327C132.548 0.0867352 133.486 1.02414 133.486 2.24504V2.24514ZM137.279 3.48773H134.031V0.0214421H143.536V3.48773H139.394L140.288 4.14175V22.8687H137.28V3.48784L137.279 3.48773ZM147.787 9.70149H151.297V3.44468H146.893L147.787 4.1205V9.70148V9.70149ZM154.284 2.17991V10.9873C154.284 12.2081 153.347 13.1456 152.126 13.1456H151.712L154.284 22.8466H151.188L148.616 13.1456H146.894L147.788 13.8214V22.8473H144.779V3.4445V0.675824L144.234 -1.90735e-06L152.126 0.021799C153.347 0.021799 154.284 0.959205 154.284 2.18011L154.284 2.17991ZM159.08 16.0451H162.154L160.628 3.53119L159.08 16.0451ZM155.221 22.9342L157.946 0.76241L157.401 0.108388H163.222L166.034 22.934H163.004L162.59 19.4895L157.772 19.4677L158.578 20.0999L158.23 22.934H155.221L155.221 22.9342ZM167.866 3.48773H164.617V0.0214421H174.123V3.48773H169.981L170.874 4.14175V22.8687H167.866V3.48784L167.866 3.48773ZM178.374 22.847H175.365V0.697222L174.82 0.0213962H178.374V22.8471L178.374 22.847ZM182.668 19.4678H186.2V3.53184H181.796L182.668 4.20766V19.4685V19.4678ZM189.187 2.24514V20.7543C189.187 21.9752 188.249 22.9127 187.028 22.9127H181.84C180.619 22.9127 179.681 21.9753 179.681 20.7543V2.24514C179.681 1.08971 180.619 0.0868331 181.84 0.0868331H187.028C188.249 0.0868331 189.187 1.08963 189.187 2.24514ZM189.95 0.0649H194.223L197.013 12.5128V0.0860991H200V22.8897H196.272L193.503 10.5071V22.9118H190.495V0.740008L189.95 0.0649Z" fill="#222831"/>
</g>
<defs>
<clipPath id="clip0">
<rect width="200" height="22.9342" fill="white"/>
</clipPath>
</defs>
</svg>
