
<svg
   width="300mm"
   height="60mm"
   viewBox="0 0 210 297"
   version="1.1"
   id="svg5"
   sodipodi:docname="logo.svg"
   inkscape:version="1.1 (c68e22c387, 2021-05-23)"
   xmlns:inkscape="http://www.inkscape.org/namespaces/inkscape"
   xmlns:sodipodi="http://sodipodi.sourceforge.net/DTD/sodipodi-0.dtd"
   xmlns="http://www.w3.org/2000/svg"
   xmlns:svg="http://www.w3.org/2000/svg">
  <sodipodi:namedview
     id="namedview7"
     pagecolor="#ffffff"
     bordercolor="#666666"
     borderopacity="1.0"
     inkscape:pageshadow="2"
     inkscape:pageopacity="0.0"
     inkscape:pagecheckerboard="0"
     inkscape:document-units="mm"
     showgrid="false"
     inkscape:zoom="0.2703112"
     inkscape:cx="-233.06471"
     inkscape:cy="246.01275"
     inkscape:window-width="1920"
     inkscape:window-height="1017"
     inkscape:window-x="-8"
     inkscape:window-y="-8"
     inkscape:window-maximized="1"
     inkscape:current-layer="layer1" />
  <defs
     id="defs2" />
  <g
     inkscape:label="Laag 1"
     inkscape:groupmode="layer"
     id="layer1">
    <path
       style="fill:#0e69c7;stroke:none;stroke-width:1.54684"
       d="M -637.50001,0 V 297.00009 H 847.5 V 0 H -637.50001 m 249.04683,83.531264 v 15.468701 h -18.56247 V 83.531264 h 18.56247 m 682.17195,0 v 41.765616 h 1.54679 c 9.85213,-15.82297 35.70041,-22.88141 44.50518,-1.47262 7.73588,18.8054 3.448,44.95679 3.448,64.89447 H 323.1094 c 0,-14.86235 0.88646,-30.03412 -0.19389,-44.8593 -0.44289,-6.07926 -2.00171,-13.12217 -7.89221,-16.23146 -8.05922,-4.25225 -15.63421,3.01174 -18.47121,10.08254 -6.02511,15.0187 -2.83382,35.12342 -2.83382,51.00822 H 275.15576 V 83.531264 h 18.56251 m -491.90632,7.734411 v 20.109305 h 26.29686 v 13.9219 h -26.29686 c 0,10.82196 -0.18737,21.66402 0.025,32.48436 0.10812,5.60901 0.43184,11.72532 5.26401,15.45482 6.50772,5.02588 16.69078,2.80446 24.10342,1.56085 v 13.92182 c -11.17463,0.52146 -23.10877,3.4032 -34.01425,-0.38226 -22.86744,-7.93539 -15.48578,-44.16481 -15.48578,-63.03978 l -12.37494,-1.54691 v -10.8281 l 12.39356,-4.64056 7.96175,-13.908007 12.12904,-3.107643 m -317.10928,88.17187 v 40.21874 h -20.11072 v -108.2811 h 18.56248 v 12.375 c 3.70326,-4.17343 7.34611,-8.26649 12.44155,-10.78173 13.03087,-6.4334 27.17394,-0.29254 33.3738,12.3457 10.48474,21.37311 4.69475,74.76509 -30.3373,63.33052 -5.49763,-1.79433 -9.66797,-5.46974 -13.93119,-9.20691 M -266.25,134.57809 c -5.22845,0.6896 -11.3247,2.19199 -16.36749,-0.0299 -6.73663,-2.97314 -10.58838,-11.3464 -19.13641,-9.40658 -15.72553,3.56865 -15.72553,32.38071 -8.74907,43.19337 5.27945,8.18296 15.01243,8.89152 21.42571,1.60257 1.99706,-2.26767 3.03502,-4.80303 4.26476,-7.51158 l 20.10936,1.54676 c -8.49702,23.97969 -39.7191,36.43986 -59.91513,16.57015 -9.4978,-9.34461 -12.23733,-23.86364 -10.64558,-36.67945 1.3566,-10.92097 5.56412,-21.43198 14.94748,-27.85302 19.59112,-13.40681 48.14182,-4.49528 54.06637,18.57174 M 38.484351,112.92586 v 13.92192 c -7.027478,0 -14.890234,-0.84605 -21.640816,1.45702 -23.6702686,8.07624 -18.5779843,41.08044 -18.5779843,60.41786 H -20.296944 c 0,-25.83119 1.506654,-52.03843 -4.640582,-77.34371 h 20.1093165 l 1.5468801,15.46883 C 7.6751857,112.058 20.602468,106.54194 38.484351,112.92586 M 142.12496,153.14454 H 89.531191 c 0.450397,3.19749 0.868373,6.30352 2.021725,9.34477 3.09221,8.14419 10.286774,15.02784 19.578824,12.62553 4.70711,-1.21731 8.22176,-4.87115 12.81435,-6.30357 5.16663,-1.61178 11.3077,-0.34467 16.63208,-0.19786 -11.21951,21.97018 -44.483611,30.54608 -62.288089,10.30214 -9.378708,-10.66569 -10.585259,-27.82062 -7.929277,-41.23968 4.841642,-24.45613 35.938466,-35.82877 56.156246,-21.51551 11.95729,8.466 14.61799,23.33771 15.60791,36.98418 m 259.87495,-42.65822 c 12.18948,-1.78973 26.1917,1.0014 34.63,10.57912 19.65454,22.3044 7.85492,64.29275 -22.25494,68.54971 -13.27063,1.8749 -27.59001,-2.2461 -35.72511,-13.39131 -16.55619,-22.68025 -5.85179,-61.44651 23.35005,-65.73752 m 241.3125,21.00195 c -4.67158,0.20441 -10.1598,1.35195 -14.67824,-0.19786 -7.20997,-2.47337 -21.80474,-14.88716 -27.86703,-2.35284 -3.03494,6.27575 5.62606,9.61699 10.07948,10.95348 13.73159,4.11938 32.57867,6.19835 34.19521,24.08802 1.22671,13.56911 -9.63075,22.38471 -21.83871,24.92931 -18.2748,3.80693 -39.16542,0.3106 -46.40622,-18.74813 l 17.0156,-3.09372 c 5.16652,7.38795 12.41361,11.02151 21.63154,9.25189 4.60035,-0.88332 11.41128,-4.39 9.33684,-10.20016 -2.21355,-6.19825 -11.57063,-7.67088 -17.04658,-9.00281 -14.74014,-3.58717 -30.85238,-10.19237 -27.11827,-28.68828 2.1951,-10.86377 12.37813,-16.11998 22.47765,-17.76435 17.20748,-2.80138 35.37245,2.63443 40.21873,20.8256 m 106.73439,21.6562 h -52.59374 c 0.45038,3.1975 0.86731,6.3035 2.02174,9.34475 3.09221,8.14422 10.28676,15.02785 19.57885,12.62554 4.71179,-1.21732 8.22317,-4.8711 12.81732,-6.30351 5.16668,-1.61182 11.3078,-0.34465 16.62893,-0.19786 -11.21482,21.97019 -44.48346,30.54608 -62.28797,10.30215 -9.37866,-10.66571 -10.58522,-27.82063 -7.92923,-41.23969 4.84173,-24.45608 35.93857,-35.82876 56.1562,-21.51551 11.95732,8.46601 14.6179,23.3377 15.6079,36.98418 M -388.45318,111.37498 v 63.42193 l 26.2969,1.54681 v 12.37501 h -72.70313 v -13.92182 h 27.84376 v -49.50003 c -12.5436,-0.005 -21.16746,0.72688 -21.65625,-13.9219 h 40.21872 m 276.89061,0 c 0,15.24755 -1.39216,31.24998 0.34471,46.40471 0.67145,5.87038 2.95606,13.14233 9.19621,15.24449 7.950893,2.6791 13.841438,-5.66317 15.92043,-12.15844 4.881924,-15.25224 2.382185,-33.68015 2.382185,-49.49076 h 18.562511 l 1.546877,77.34375 c -12.220331,-0.0102 -19.645361,-0.0102 -20.109388,-13.92182 h -1.546808 c -9.961907,16.00083 -33.356867,21.98263 -42.928887,1.50966 -8.39644,-17.96067 -3.47739,-45.5275 -3.47739,-64.93159 h 20.10935 m 607.92192,0 c 0,15.24755 -1.39217,31.24998 0.34469,46.40471 0.67144,5.87038 2.95608,13.14233 9.19451,15.24449 7.95252,2.6791 13.84301,-5.66317 15.92212,-12.15844 4.88184,-15.25224 2.38215,-33.68015 2.38215,-49.49076 h 18.56243 l 1.54685,77.34375 c -12.22025,-0.0102 -19.64526,-0.0102 -20.10928,-13.92182 h -1.54691 c -9.96185,16.00083 -33.3568,21.98416 -42.92888,1.50966 -8.39647,-17.96067 -3.47733,-45.5275 -3.47733,-64.93159 h 20.10929 M 89.530637,140.76563 h 32.484493 c -1.69226,-12.7741 -15.1579,-24.94799 -26.770319,-13.06803 -3.548515,3.62898 -4.694738,8.28199 -5.714174,13.06803 m 607.921923,0 h 32.48445 c -1.6861,-12.7741 -15.15789,-24.94799 -26.77031,-13.06803 -3.54854,3.62898 -4.69477,8.28199 -5.71414,13.06803 M -505.61343,125.6682 c -12.7478,5.62752 -12.07649,27.32853 -8.6192,38.2619 2.3172,7.32752 8.98733,14.03325 17.25071,10.77244 13.13455,-5.18208 12.34873,-29.36433 8.17369,-40.07174 -2.6637,-6.83412 -9.26424,-12.29149 -16.8052,-8.9626 m 907.87942,-0.18735 c -12.48163,5.53313 -12.08107,30.88026 -7.23319,41.4268 3.3784,7.35236 11.52892,10.96584 19.16126,7.69728 13.25506,-5.67704 13.3185,-30.42401 7.91065,-41.46399 -3.60892,-7.36935 -12.09964,-11.09116 -19.83872,-7.66009 m -919.10977,52.40964 1.54686,1.54691 z"
       id="path571" />
  </g>
</svg>
